<?xml version="1.0" encoding="UTF-8"?>
<svg viewBox="0 0 900 780" xmlns="http://www.w3.org/2000/svg" width="900" style="background:#010409">
<defs>
  <filter id="glow-blue"><feGaussianBlur stdDeviation="3" result="b"/><feMerge><feMergeNode in="b"/><feMergeNode in="SourceGraphic"/></feMerge></filter>
  <filter id="glow-green"><feGaussianBlur stdDeviation="3" result="b"/><feMerge><feMergeNode in="b"/><feMergeNode in="SourceGraphic"/></feMerge></filter>
  <filter id="glow-red"><feGaussianBlur stdDeviation="5" result="b"/><feMerge><feMergeNode in="b"/><feMergeNode in="SourceGraphic"/></feMerge></filter>
  <marker id="arr" markerWidth="8" markerHeight="8" refX="6" refY="3" orient="auto"><path d="M0,0 L0,6 L8,3 z" fill="#30363d"/></marker>
</defs>

<rect x="0" y="0" width="900" height="780" fill="#010409"/>

<line x1="0" y1="130" x2="900" y2="130" stroke="#161b22" stroke-width="1"/>
<line x1="0" y1="290" x2="900" y2="290" stroke="#161b22" stroke-width="1"/>
<line x1="0" y1="450" x2="900" y2="450" stroke="#161b22" stroke-width="1"/>
<line x1="0" y1="620" x2="900" y2="620" stroke="#161b22" stroke-width="1"/>

<text x="450" y="22" text-anchor="middle" fill="#8b949e" font-size="10" font-family="monospace" letter-spacing="3">PROF. FIUMARA — PYTHON EXAM MAP — UNIME</text>

<line x1="450" y1="90" x2="220" y2="130" stroke="#30363d" stroke-width="1.5" marker-end="url(#arr)"/>
<line x1="450" y1="90" x2="680" y2="130" stroke="#30363d" stroke-width="1.5" marker-end="url(#arr)"/>

<line x1="130" y1="184" x2="67" y2="250" stroke="#30363d" stroke-width="1.5" marker-end="url(#arr)"/>
<line x1="180" y1="184" x2="193" y2="250" stroke="#30363d" stroke-width="1.5" marker-end="url(#arr)"/>
<line x1="220" y1="184" x2="319" y2="250" stroke="#30363d" stroke-width="1.5" marker-end="url(#arr)"/>
<line x1="255" y1="184" x2="445" y2="250" stroke="#30363d" stroke-width="1.5" marker-end="url(#arr)"/>

<line x1="630" y1="184" x2="571" y2="250" stroke="#30363d" stroke-width="1.5" marker-end="url(#arr)"/>
<line x1="680" y1="184" x2="697" y2="250" stroke="#30363d" stroke-width="1.5" marker-end="url(#arr)"/>
<line x1="730" y1="184" x2="823" y2="250" stroke="#30363d" stroke-width="1.5" marker-end="url(#arr)"/>

<line x1="319" y1="318" x2="330" y2="390" stroke="#30363d" stroke-width="1.5" marker-end="url(#arr)"/>

<line x1="697" y1="318" x2="630" y2="390" stroke="#30363d" stroke-width="1.5" marker-end="url(#arr)"/>
<line x1="823" y1="318" x2="800" y2="390" stroke="#30363d" stroke-width="1.5" marker-end="url(#arr)"/>

<line x1="67" y1="318" x2="380" y2="695" stroke="#1a1a2e" stroke-width="1.5" marker-end="url(#arr)"/>
<line x1="193" y1="318" x2="400" y2="695" stroke="#1a1a2e" stroke-width="1.5" marker-end="url(#arr)"/>
<line x1="445" y1="318" x2="430" y2="695" stroke="#1a1a2e" stroke-width="1.5" marker-end="url(#arr)"/>
<line x1="571" y1="318" x2="460" y2="695" stroke="#1a1a2e" stroke-width="1.5" marker-end="url(#arr)"/>
<line x1="330" y1="460" x2="415" y2="695" stroke="#1a1a2e" stroke-width="1.5" marker-end="url(#arr)"/>
<line x1="620" y1="460" x2="490" y2="695" stroke="#1a1a2e" stroke-width="1.5" marker-end="url(#arr)"/>
<line x1="795" y1="460" x2="520" y2="695" stroke="#1a1a2e" stroke-width="1.5" marker-end="url(#arr)"/>
<line x1="845" y1="318" x2="540" y2="690" stroke="#1a1a2e" stroke-width="1.5" marker-end="url(#arr)"/>

<rect x="350" y="32" width="200" height="60" rx="8" fill="#0d1d30" stroke="#1f6feb" stroke-width="2" filter="url(#glow-blue)"/>
<text x="450" y="57" text-anchor="middle" fill="#58a6ff" font-size="13" font-weight="bold" font-family="monospace">🎯 START</text>
<text x="450" y="74" text-anchor="middle" fill="#8b949e" font-size="10" font-family="monospace">Python Exam Question</text>
<rect x="415" y="82" width="70" height="14" rx="4" fill="#1f6feb"/>
<text x="450" y="92" text-anchor="middle" fill="#fff" font-size="9" font-weight="bold" font-family="monospace">Lv. 1</text>

<rect x="100" y="132" width="160" height="52" rx="8" fill="#161b22" stroke="#30363d" stroke-width="1.5"/>
<text x="180" y="154" text-anchor="middle" fill="#e3b341" font-size="12" font-weight="bold" font-family="monospace">🐍 Pure Python</text>
<text x="180" y="170" text-anchor="middle" fill="#8b949e" font-size="10" font-family="monospace">No data structure</text>

<rect x="580" y="132" width="180" height="52" rx="8" fill="#161b22" stroke="#30363d" stroke-width="1.5"/>
<text x="670" y="154" text-anchor="middle" fill="#79c0ff" font-size="12" font-weight="bold" font-family="monospace">🔗 Data Structures</text>
<text x="670" y="170" text-anchor="middle" fill="#8b949e" font-size="10" font-family="monospace">DLL / SLL / Tree / Graph</text>

<rect x="8" y="252" width="118" height="66" rx="8" fill="#0d2818" stroke="#238636" stroke-width="1.5"/>
<text x="67" y="272" text-anchor="middle" fill="#56d364" font-size="11" font-weight="bold" font-family="monospace">📋 Flat List</text>
<text x="67" y="287" text-anchor="middle" fill="#8b949e" font-size="9" font-family="monospace">onlyeven, sort,</text>
<text x="67" y="299" text-anchor="middle" fill="#8b949e" font-size="9" font-family="monospace">count, min/max</text>
<rect x="22" y="306" width="32" height="12" rx="3" fill="#0d2818" stroke="#238636"/>
<text x="38" y="315" text-anchor="middle" fill="#56d364" font-size="8" font-weight="bold" font-family="monospace">Lv.2</text>
<text x="90" y="315" text-anchor="middle" fill="#e3b341" font-size="9" font-family="monospace">★★★★</text>

<rect x="134" y="252" width="118" height="66" rx="8" fill="#0d2818" stroke="#238636" stroke-width="1.5"/>
<text x="193" y="272" text-anchor="middle" fill="#56d364" font-size="11" font-weight="bold" font-family="monospace">🗂 Nested List</text>
<text x="193" y="287" text-anchor="middle" fill="#8b949e" font-size="9" font-family="monospace">xlist, flatten,</text>
<text x="193" y="299" text-anchor="middle" fill="#8b949e" font-size="9" font-family="monospace">ds_sum/avg/max</text>
<rect x="148" y="306" width="32" height="12" rx="3" fill="#0d2818" stroke="#238636"/>
<text x="164" y="315" text-anchor="middle" fill="#56d364" font-size="8" font-weight="bold" font-family="monospace">Lv.3</text>
<text x="216" y="315" text-anchor="middle" fill="#e3b341" font-size="9" font-family="monospace">★★★★</text>

<rect x="260" y="252" width="118" height="66" rx="8" fill="#1a1a2e" stroke="#8b5cf6" stroke-width="1.5"/>
<text x="319" y="272" text-anchor="middle" fill="#c084fc" font-size="11" font-weight="bold" font-family="monospace">🔤 Strings</text>
<text x="319" y="287" text-anchor="middle" fill="#8b949e" font-size="9" font-family="monospace">palindrome, vowels,</text>
<text x="319" y="299" text-anchor="middle" fill="#8b949e" font-size="9" font-family="monospace">pangram, rotation</text>
<rect x="274" y="306" width="32" height="12" rx="3" fill="#1a1a2e" stroke="#8b5cf6"/>
<text x="290" y="315" text-anchor="middle" fill="#c084fc" font-size="8" font-weight="bold" font-family="monospace">Lv.5</text>
<text x="340" y="315" text-anchor="middle" fill="#e3b341" font-size="9" font-family="monospace">★★★</text>

<rect x="386" y="252" width="118" height="66" rx="8" fill="#2e1a00" stroke="#d29922" stroke-width="1.5"/>
<text x="445" y="272" text-anchor="middle" fill="#e3b341" font-size="11" font-weight="bold" font-family="monospace">📦 Dict</text>
<text x="445" y="287" text-anchor="middle" fill="#8b949e" font-size="9" font-family="monospace">count_letters,</text>
<text x="445" y="299" text-anchor="middle" fill="#8b949e" font-size="9" font-family="monospace">query, invert</text>
<rect x="400" y="306" width="32" height="12" rx="3" fill="#2e1a00" stroke="#d29922"/>
<text x="416" y="315" text-anchor="middle" fill="#e3b341" font-size="8" font-weight="bold" font-family="monospace">Lv.4</text>
<text x="466" y="315" text-anchor="middle" fill="#e3b341" font-size="9" font-family="monospace">★★★</text>

<rect x="512" y="252" width="118" height="66" rx="8" fill="#1a2e2e" stroke="#3fb950" stroke-width="1.5"/>
<text x="571" y="272" text-anchor="middle" fill="#3fb950" font-size="11" font-weight="bold" font-family="monospace">📚 Stack</text>
<text x="571" y="287" text-anchor="middle" fill="#8b949e" font-size="9" font-family="monospace">push, pop, top,</text>
<text x="571" y="299" text-anchor="middle" fill="#8b949e" font-size="9" font-family="monospace">reverse_with_stack</text>
<rect x="526" y="306" width="32" height="12" rx="3" fill="#1a2e2e" stroke="#3fb950"/>
<text x="542" y="315" text-anchor="middle" fill="#3fb950" font-size="8" font-weight="bold" font-family="monospace">Lv.4</text>
<text x="588" y="315" text-anchor="middle" fill="#e3b341" font-size="9" font-family="monospace">★★</text>

<rect x="638" y="252" width="118" height="66" rx="8" fill="#0d1d30" stroke="#58a6ff" stroke-width="1.5"/>
<text x="697" y="272" text-anchor="middle" fill="#58a6ff" font-size="11" font-weight="bold" font-family="monospace">🔗 SLL</text>
<text x="697" y="287" text-anchor="middle" fill="#8b949e" font-size="9" font-family="monospace">sum, add_front,</text>
<text x="697" y="299" text-anchor="middle" fill="#8b949e" font-size="9" font-family="monospace">traverse (None)</text>
<rect x="652" y="306" width="32" height="12" rx="3" fill="#0d1d30" stroke="#58a6ff"/>
<text x="668" y="315" text-anchor="middle" fill="#58a6ff" font-size="8" font-weight="bold" font-family="monospace">Lv.6</text>
<text x="718" y="315" text-anchor="middle" fill="#e3b341" font-size="9" font-family="monospace">★★★</text>

<rect x="764" y="252" width="128" height="66" rx="8" fill="#3d1a1a" stroke="#ff7b72" stroke-width="2" filter="url(#glow-red)"/>
<text x="828" y="272" text-anchor="middle" fill="#ff7b72" font-size="11" font-weight="bold" font-family="monospace">⚔️ DLL</text>
<text x="828" y="287" text-anchor="middle" fill="#8b949e" font-size="9" font-family="monospace">enqueue, dequeue,</text>
<text x="828" y="299" text-anchor="middle" fill="#8b949e" font-size="9" font-family="monospace">max, sorted, swap</text>
<rect x="778" y="306" width="32" height="12" rx="3" fill="#3d1a1a" stroke="#ff7b72"/>
<text x="794" y="315" text-anchor="middle" fill="#ff7b72" font-size="8" font-weight="bold" font-family="monospace">Lv.7</text>
<text x="850" y="315" text-anchor="middle" fill="#e3b341" font-size="9" font-family="monospace">★★★★★</text>

<rect x="260" y="392" width="140" height="66" rx="8" fill="#1a1a2e" stroke="#8b5cf6" stroke-width="1.5"/>
<text x="330" y="412" text-anchor="middle" fill="#c084fc" font-size="11" font-weight="bold" font-family="monospace">🔄 Recursion</text>
<text x="330" y="427" text-anchor="middle" fill="#8b949e" font-size="9" font-family="monospace">digit_sum(n),</text>
<text x="330" y="439" text-anchor="middle" fill="#8b949e" font-size="9" font-family="monospace">digit_count(n)</text>
<rect x="295" y="446" width="32" height="12" rx="3" fill="#1a1a2e" stroke="#8b5cf6"/>
<text x="311" y="455" text-anchor="middle" fill="#c084fc" font-size="8" font-weight="bold" font-family="monospace">Lv.6</text>
<text x="346" y="455" text-anchor="middle" fill="#e3b341" font-size="9" font-family="monospace">★★</text>

<rect x="540" y="392" width="160" height="66" rx="8" fill="#0d2818" stroke="#56d364" stroke-width="2" filter="url(#glow-green)"/>
<text x="620" y="412" text-anchor="middle" fill="#56d364" font-size="11" font-weight="bold" font-family="monospace">🌲 Binary Tree</text>
<text x="620" y="427" text-anchor="middle" fill="#8b949e" font-size="9" font-family="monospace">BFS: btc, between,</text>
<text x="620" y="439" text-anchor="middle" fill="#8b949e" font-size="9" font-family="monospace">count_leaves</text>
<rect x="582" y="446" width="32" height="12" rx="3" fill="#0d2818" stroke="#56d364"/>
<text x="598" y="455" text-anchor="middle" fill="#56d364" font-size="8" font-weight="bold" font-family="monospace">Lv.8</text>
<text x="634" y="455" text-anchor="middle" fill="#e3b341" font-size="9" font-family="monospace">★★★★</text>

<rect x="720" y="392" width="150" height="66" rx="8" fill="#161b22" stroke="#30363d" stroke-width="1.5"/>
<text x="795" y="412" text-anchor="middle" fill="#79c0ff" font-size="11" font-weight="bold" font-family="monospace">🕸 Graph</text>
<text x="795" y="427" text-anchor="middle" fill="#8b949e" font-size="9" font-family="monospace">degrees, isolated,</text>
<text x="795" y="439" text-anchor="middle" fill="#8b949e" font-size="9" font-family="monospace">hub_nodes</text>
<rect x="759" y="446" width="32" height="12" rx="3" fill="#161b22" stroke="#58a6ff"/>
<text x="775" y="455" text-anchor="middle" fill="#58a6ff" font-size="8" font-weight="bold" font-family="monospace">Lv.9</text>
<text x="808" y="455" text-anchor="middle" fill="#e3b341" font-size="9" font-family="monospace">★★★</text>

<rect x="270" y="635" width="360" height="100" rx="12" fill="#1a0a0a" stroke="#ff7b72" stroke-width="3" filter="url(#glow-red)"/>
<text x="450" y="665" text-anchor="middle" fill="#ff7b72" font-size="16" font-weight="bold" font-family="monospace">💀 VICTOR</text>
<text x="450" y="684" text-anchor="middle" fill="#ffa657" font-size="11" font-family="monospace">FINAL EXAM — PROF. FIUMARA</text>
<text x="450" y="700" text-anchor="middle" fill="#8b949e" font-size="10" font-family="monospace">All topics combined • Timed • No notes</text>
<rect x="395" y="710" width="50" height="16" rx="4" fill="#3d0000" stroke="#ff7b72"/>
<text x="420" y="721" text-anchor="middle" fill="#ff7b72" font-size="9" font-weight="bold" font-family="monospace">Lv. 20</text>
<text x="460" y="721" text-anchor="middle" fill="#e3b341" font-size="11" font-family="monospace">★★★★★</text>

<rect x="10" y="740" width="880" height="30" rx="4" fill="#161b22" stroke="#30363d"/>
<text x="20" y="759" fill="#8b949e" font-size="9" font-family="monospace">★ = exam frequency (Fiumara)  |  Lv = difficulty  |  ★★★★★ DLL = most common  |  use 🎯 Flowchart tab to navigate</text>
</svg>
